<?xml version="1.0" encoding="UTF-8" standalone="no"?>
<!-- Generator: Adobe Illustrator 21.1.0, SVG Export Plug-In . SVG Version: 6.00 Build 0)  -->

<svg
   xmlns:dc="http://purl.org/dc/elements/1.1/"
   xmlns:cc="http://creativecommons.org/ns#"
   xmlns:rdf="http://www.w3.org/1999/02/22-rdf-syntax-ns#"
   xmlns:svg="http://www.w3.org/2000/svg"
   xmlns="http://www.w3.org/2000/svg"
   xmlns:sodipodi="http://sodipodi.sourceforge.net/DTD/sodipodi-0.dtd"
   xmlns:inkscape="http://www.inkscape.org/namespaces/inkscape"
   version="1.1"
   id="Capa_1"
   x="0px"
   y="0px"
   viewBox="0 0 17.234096 16.452289"
   xml:space="preserve"
   inkscape:version="0.91 r13725"
   sodipodi:docname="adobe-illustrator.svg"
   width="17.234097"
   height="16.45229"><metadata
     id="metadata4162"><rdf:RDF><cc:Work
         rdf:about=""><dc:format>image/svg+xml</dc:format><dc:type
           rdf:resource="http://purl.org/dc/dcmitype/StillImage" /><dc:title></dc:title></cc:Work></rdf:RDF></metadata><defs
     id="defs4160" /><sodipodi:namedview
     pagecolor="#ffffff"
     bordercolor="#666666"
     borderopacity="1"
     objecttolerance="10"
     gridtolerance="10"
     guidetolerance="10"
     inkscape:pageopacity="0"
     inkscape:pageshadow="2"
     inkscape:window-width="1366"
     inkscape:window-height="715"
     id="namedview4158"
     showgrid="false"
     fit-margin-top="0"
     fit-margin-left="0"
     fit-margin-right="0"
     fit-margin-bottom="0"
     inkscape:zoom="1.008547"
     inkscape:cx="-161.8999"
     inkscape:cy="-223.47991"
     inkscape:window-x="-8"
     inkscape:window-y="-8"
     inkscape:window-maximized="1"
     inkscape:current-layer="g4150" /><style
     type="text/css"
     id="style4148">
	.st0{fill:#261300;}
	.st1{fill:#FF7C00;}
</style><g
     id="g4150"
     transform="translate(-281.8999,122.9322)"><path
       inkscape:connector-curvature="0"
       class="st1"
       d="m 285.5645,-110.99337 -1.1502,4.36786 c -0.0291,0.11648 -0.0728,0.1456 -0.2184,0.1456 l -2.14025,0 c -0.1456,0 -0.17472,-0.0437 -0.1456,-0.2184 l 4.13491,-14.47218 c 0.0728,-0.26208 0.11648,-0.49503 0.1456,-1.20845 0,-0.10191 0.0437,-0.14559 0.11648,-0.14559 l 3.0575,0 c 0.10192,0 0.1456,0.0291 0.17472,0.14559 l 4.62993,15.70975 c 0.0291,0.11648 0,0.18928 -0.11647,0.18928 l -2.41689,0 c -0.11648,0 -0.18927,-0.0291 -0.21839,-0.13104 l -1.20844,-4.38242 -4.6445,0 0,0 z m 4.04755,-2.35865 c -0.40766,-1.61611 -1.36859,-5.13952 -1.73258,-6.84299 l -0.0291,0 c -0.30575,1.70347 -1.07741,4.58626 -1.68891,6.84299 l 3.45061,0 z m 6.5518,-8.09511 c 0,-0.93181 0.65518,-1.48507 1.48507,-1.48507 0.88814,0 1.48508,0.59694 1.48508,1.48507 0,0.96093 -0.62606,1.48508 -1.5142,1.48508 -0.84445,0 -1.45595,-0.52415 -1.45595,-1.48508 l 0,0 z m 0.17472,3.30502 c 0,-0.11648 0.0437,-0.17471 0.17471,-0.17471 l 2.28585,0 c 0.11647,0 0.17471,0.0437 0.17471,0.17471 l 0,11.48748 c 0,0.11648 -0.0291,0.17472 -0.17471,0.17472 l -2.25673,0 c -0.1456,0 -0.18928,-0.0728 -0.18928,-0.18928 l 0,-11.47292 z"
       id="path4156-7"
       style="fill:#ffffff;fill-opacity:1" /></g></svg>