<?xml version="1.0" encoding="UTF-8" standalone="no"?>
<!-- Generator: Adobe Illustrator 18.1.0, SVG Export Plug-In . SVG Version: 6.00 Build 0)  -->

<svg
   xmlns:dc="http://purl.org/dc/elements/1.1/"
   xmlns:cc="http://creativecommons.org/ns#"
   xmlns:rdf="http://www.w3.org/1999/02/22-rdf-syntax-ns#"
   xmlns:svg="http://www.w3.org/2000/svg"
   xmlns="http://www.w3.org/2000/svg"
   xmlns:sodipodi="http://sodipodi.sourceforge.net/DTD/sodipodi-0.dtd"
   xmlns:inkscape="http://www.inkscape.org/namespaces/inkscape"
   version="1.1"
   id="Layer_1"
   x="0px"
   y="0px"
   viewBox="-362.4 459.1 18.855921 16.625441"
   enable-background="new -362.4 459.1 500 500"
   xml:space="preserve"
   inkscape:version="0.91 r13725"
   sodipodi:docname="adobe-photoshop.svg"
   width="18.855921"
   height="16.625441"><metadata
     id="metadata16"><rdf:RDF><cc:Work
         rdf:about=""><dc:format>image/svg+xml</dc:format><dc:type
           rdf:resource="http://purl.org/dc/dcmitype/StillImage" /><dc:title></dc:title></cc:Work></rdf:RDF></metadata><defs
     id="defs14" /><sodipodi:namedview
     pagecolor="#ffffff"
     bordercolor="#666666"
     borderopacity="1"
     objecttolerance="10"
     gridtolerance="10"
     guidetolerance="10"
     inkscape:pageopacity="0"
     inkscape:pageshadow="2"
     inkscape:window-width="1366"
     inkscape:window-height="715"
     id="namedview12"
     showgrid="false"
     fit-margin-top="0"
     fit-margin-left="0"
     fit-margin-right="0"
     fit-margin-bottom="0"
     inkscape:zoom="2.6700352"
     inkscape:cx="-6.9202278"
     inkscape:cy="-36.565448"
     inkscape:window-x="-8"
     inkscape:window-y="-8"
     inkscape:window-maximized="1"
     inkscape:current-layer="Layer_1" /><radialGradient
     id="SVGID_1_"
     cx="-1002.9117"
     cy="1088.6686"
     r="0.63709998"
     gradientTransform="matrix(545.6736,0,0,-528.3113,547071.63,575749.06)"
     gradientUnits="userSpaceOnUse"><stop
       offset="0"
       style="stop-color:#34364E;stop-opacity:0.98"
       id="stop4" /><stop
       offset="1"
       style="stop-color:#0C0824"
       id="stop6" /></radialGradient><path
     sodipodi:nodetypes="cscsscsscsscsscssccccssscscccsssscsss"
     id="path4159"
     d="m -346.89144,465.46751 c -1.17805,0 -1.58031,0.59249 -1.58031,1.08504 0,0.53539 0.26578,0.90659 1.85327,1.72037 2.34173,1.12787 3.07441,2.21291 3.07441,3.79765 0,2.3771 -1.82453,3.65488 -4.28837,3.65488 -1.30016,0 -2.42074,-0.26412 -3.06005,-0.63532 -0.10775,-0.0428 -0.12211,-0.12135 -0.12211,-0.23557 l 0,-2.1915 c 0,-0.14991 0.0718,-0.19274 0.17958,-0.12135 0.941,0.60676 2.01848,0.87802 3.00258,0.87802 1.17804,0 1.67369,-0.49255 1.67369,-1.15642 0,-0.53539 -0.3448,-1.00652 -1.85327,-1.78461 -2.11905,-1.00652 -3.00258,-2.02732 -3.00258,-3.74055 0,-1.9131 1.50847,-3.50497 4.12316,-3.50497 1.28579,0 2.18369,0.19274 2.67215,0.41403 0.12212,0.0714 0.15085,0.19274 0.15085,0.29981 l 0,2.03446 c 0,0.12135 -0.0718,0.19274 -0.22268,0.14991 -0.66085,-0.41403 -1.63059,-0.66388 -2.60032,-0.66388 z m -12.84358,1.7632 c 0.3448,0.0285 0.61057,0.0285 1.20678,0.0285 1.74552,0 3.39048,-0.60677 3.39048,-2.96959 0,-1.88455 -1.17805,-2.83396 -3.1678,-2.83396 -0.59621,0 -1.16368,0.0285 -1.43664,0.0428 z m -2.66497,-7.88084 c 0,-0.10708 0.20831,-0.17846 0.33043,-0.17846 0.95537,-0.0428 2.37764,-0.0714 3.8502,-0.0714 1.77871,0 3.09146,0.41689 4.01015,1.12079 1.2183,0.93347 1.7436,2.37169 1.7436,4.01175 0,3.7691 -2.75117,5.38952 -6.12728,5.38952 -0.56747,0 -0.76142,-0.0285 -1.16368,-0.0285 l 0,5.69648 c 0,0.12135 -0.0431,0.17846 -0.17958,0.17846 l -2.28426,0 c -0.12211,0 -0.17958,-0.0428 -0.17958,-0.17846 z"
     style="fill:#ffffff;fill-opacity:1;stroke:none;stroke-width:1;stroke-miterlimit:4;stroke-dasharray:none;stroke-opacity:1"
     inkscape:connector-curvature="0" /></svg>