<?xml version="1.0" encoding="UTF-8" standalone="no"?>
<!-- Generator: Adobe Illustrator 13.0.0, SVG Export Plug-In . SVG Version: 6.00 Build 14948)  -->

<svg
   xmlns:dc="http://purl.org/dc/elements/1.1/"
   xmlns:cc="http://creativecommons.org/ns#"
   xmlns:rdf="http://www.w3.org/1999/02/22-rdf-syntax-ns#"
   xmlns:svg="http://www.w3.org/2000/svg"
   xmlns="http://www.w3.org/2000/svg"
   xmlns:sodipodi="http://sodipodi.sourceforge.net/DTD/sodipodi-0.dtd"
   xmlns:inkscape="http://www.inkscape.org/namespaces/inkscape"
   version="1.1"
   id="Layer_1"
   x="0px"
   y="0px"
   width="15.067557"
   height="17.67551"
   viewBox="0 0 15.067557 17.67551"
   enable-background="new 0 0 500 500"
   xml:space="preserve"
   inkscape:version="0.91 r13725"
   sodipodi:docname="android-development.svg"><metadata
     id="metadata23"><rdf:RDF><cc:Work
         rdf:about=""><dc:format>image/svg+xml</dc:format><dc:type
           rdf:resource="http://purl.org/dc/dcmitype/StillImage" /><dc:title></dc:title></cc:Work></rdf:RDF></metadata><defs
     id="defs21" /><sodipodi:namedview
     pagecolor="#ffffff"
     bordercolor="#666666"
     borderopacity="1"
     objecttolerance="10"
     gridtolerance="10"
     guidetolerance="10"
     inkscape:pageopacity="0"
     inkscape:pageshadow="2"
     inkscape:window-width="1366"
     inkscape:window-height="715"
     id="namedview19"
     showgrid="false"
     fit-margin-top="0"
     fit-margin-left="0"
     fit-margin-right="0"
     fit-margin-bottom="0"
     inkscape:zoom="0.944"
     inkscape:cx="215.14302"
     inkscape:cy="278.58153"
     inkscape:window-x="-8"
     inkscape:window-y="-8"
     inkscape:window-maximized="1"
     inkscape:current-layer="androd" /><g
     id="max_width__x2F__height"
     display="none"
     style="display:none"
     transform="translate(-77.674,-433.95949)"><path
       display="inline"
       d="m 499.001,1 0,498 L 1,499 1,1 499.001,1 m 1,-1 L 0,0 l 0,500 500.001,0 0,-500 0,0 z"
       id="path4"
       inkscape:connector-curvature="0"
       style="display:inline" /></g><g
     id="androd"
     transform="translate(-77.674,-433.95949)"><g
       id="g4154"
       transform="matrix(0.0438306,0,0,0.0438306,74.269502,431.83957)"
       style="fill:#ffffff;fill-opacity:1"><path
         id="path7"
         d="m 180.26367,48.369141 c -0.68583,-0.02812 -1.36662,0.149984 -1.95312,0.552734 -1.564,1.077 -1.86107,3.361516 -0.66407,5.103516 l 20.16602,29.271484 c -32.063,14.916 -54.54711,43.259845 -57.41211,76.339845 l 218.31641,0 c -2.855,-33.08 -25.34135,-61.421892 -57.40235,-76.337892 l 20.15821,-29.273437 c 1.197,-1.74 0.89898,-4.023516 -0.66602,-5.103516 -1.563,-1.074 -3.80419,-0.542781 -4.99219,1.199219 l -20.95117,30.408203 c -13.807,-5.439 -29.13883,-8.46875 -45.29883,-8.46875 -16.16,0 -31.49673,3.02675 -45.30273,8.46875 L 183.31445,50.119141 c -0.75062,-1.0875 -1.90772,-1.703125 -3.05078,-1.75 z m 23.69141,56.910159 c 6.668,0 12.07422,5.40706 12.07422,12.08008 0.001,6.67099 -5.40622,12.07812 -12.07422,12.07812 -6.673,0 -12.07813,-5.40613 -12.07813,-12.07812 0,-6.67101 5.40213,-12.08008 12.07813,-12.08008 z m 91.20508,0 c 6.675,0 12.08007,5.40907 12.08007,12.08008 0,6.671 -5.40707,12.07812 -12.08007,12.07812 -6.668,0 -12.07227,-5.40612 -12.07227,-12.07812 0,-6.67301 5.40427,-12.08008 12.07227,-12.08008 z"
         inkscape:connector-curvature="0"
         style="fill:#ffffff;fill-opacity:1" /><path
         id="path13"
         d="m 126.383,297.598 c 0,13.45 -10.904,24.354 -24.355,24.354 l 0,0 c -13.45,0 -24.354,-10.904 -24.354,-24.354 l 0,-98.508 c 0,-13.45 10.904,-24.354 24.354,-24.354 l 0,0 c 13.451,0 24.355,10.904 24.355,24.354 l 0,98.508 z"
         inkscape:connector-curvature="0"
         style="fill:#ffffff;fill-opacity:1" /><path
         id="path15"
         d="m 140.396,175.489 0,177.915 c 0,10.566 8.566,19.133 19.135,19.133 l 22.633,0 0,54.744 c 0,13.451 10.903,24.354 24.354,24.354 13.451,0 24.355,-10.903 24.355,-24.354 l 0,-54.744 37.371,0 0,54.744 c 0,13.451 10.902,24.354 24.354,24.354 13.452,0 24.354,-10.903 24.354,-24.354 l 0,-54.744 22.633,0 c 10.569,0 19.137,-8.562 19.137,-19.133 l 0,-177.915 -218.326,0 z"
         inkscape:connector-curvature="0"
         style="fill:#ffffff;fill-opacity:1" /><path
         id="path17"
         d="m 372.734,297.598 c 0,13.45 10.903,24.354 24.354,24.354 l 0,0 c 13.45,0 24.354,-10.904 24.354,-24.354 l 0,-98.508 c 0,-13.45 -10.904,-24.354 -24.354,-24.354 l 0,0 c -13.451,0 -24.354,10.904 -24.354,24.354 l 0,98.508 z"
         inkscape:connector-curvature="0"
         style="fill:#ffffff;fill-opacity:1" /></g></g></svg>