<?xml version="1.0" encoding="UTF-8" standalone="no"?>
<!-- Generator: Adobe Illustrator 13.0.0, SVG Export Plug-In . SVG Version: 6.00 Build 14948)  -->

<svg
   xmlns:dc="http://purl.org/dc/elements/1.1/"
   xmlns:cc="http://creativecommons.org/ns#"
   xmlns:rdf="http://www.w3.org/1999/02/22-rdf-syntax-ns#"
   xmlns:svg="http://www.w3.org/2000/svg"
   xmlns="http://www.w3.org/2000/svg"
   xmlns:sodipodi="http://sodipodi.sourceforge.net/DTD/sodipodi-0.dtd"
   xmlns:inkscape="http://www.inkscape.org/namespaces/inkscape"
   version="1.1"
   id="Layer_1"
   x="0px"
   y="0px"
   width="16.007095"
   height="13.846501"
   viewBox="0 0 16.007095 13.846501"
   enable-background="new 0 0 500 500"
   xml:space="preserve"
   inkscape:version="0.91 r13725"
   sodipodi:docname="c-sharp.svg"><metadata
     id="metadata23"><rdf:RDF><cc:Work
         rdf:about=""><dc:format>image/svg+xml</dc:format><dc:type
           rdf:resource="http://purl.org/dc/dcmitype/StillImage" /><dc:title></dc:title></cc:Work></rdf:RDF></metadata><defs
     id="defs21" /><sodipodi:namedview
     pagecolor="#ffffff"
     bordercolor="#666666"
     borderopacity="1"
     objecttolerance="10"
     gridtolerance="10"
     guidetolerance="10"
     inkscape:pageopacity="0"
     inkscape:pageshadow="2"
     inkscape:window-width="1366"
     inkscape:window-height="715"
     id="namedview19"
     showgrid="false"
     fit-margin-top="0"
     fit-margin-left="0"
     fit-margin-right="0"
     fit-margin-bottom="0"
     inkscape:zoom="2.6700352"
     inkscape:cx="54.723859"
     inkscape:cy="-19.794599"
     inkscape:window-x="-8"
     inkscape:window-y="-8"
     inkscape:window-maximized="1"
     inkscape:current-layer="g4559" /><g
     id="max_width__x2F__height"
     display="none"
     style="display:none"
     transform="translate(-239.84783,-722.63039)"><path
       display="inline"
       d="m 499.001,1 0,498 L 1,499 1,1 499.001,1 m 1,-1 L 0,0 l 0,500 500.001,0 0,-500 0,0 z"
       id="path4"
       inkscape:connector-curvature="0"
       style="display:inline" /></g><g
     transform="translate(-663.70976,-1026.7611)"
     id="layer1"
     inkscape:label="Layer 1"><g
       transform="matrix(0.62780448,0,0,0.62780448,290.44163,649.65566)"
       id="g4559"
       style="fill:#ffffff;fill-opacity:1"><g
         id="g27"
         transform="matrix(1.8143758,0,0,1.8143758,-935.05329,258.87172)"
         style="fill:#ffffff;fill-opacity:1"><text
           xml:space="preserve"
           style="font-style:normal;font-weight:normal;font-size:2.66758442px;line-height:125%;font-family:sans-serif;letter-spacing:0px;word-spacing:0px;fill:#ffffff;fill-opacity:1;stroke:none;stroke-width:1px;stroke-linecap:butt;stroke-linejoin:miter;stroke-opacity:1"
           x="856.4585"
           y="221.68475"
           id="text4144"
           sodipodi:linespacing="125%"><tspan
             sodipodi:role="line"
             id="tspan4146"
             x="856.4585"
             y="221.68475"
             style="font-style:normal;font-variant:normal;font-weight:normal;font-stretch:normal;font-family:Haettenschweiler;-inkscape-font-specification:Haettenschweiler;fill:#ffffff;fill-opacity:1" /></text>
<g
           id="g4323"
           transform="matrix(2.1275956,0,0,2.1275956,-905.11969,-265.5635)"
           style="fill:#ffffff;fill-opacity:1"><path
             inkscape:connector-curvature="0"
             id="path4212-8"
             d="m 824.32344,213.37006 0,0.002 c -0.37745,0.0264 -0.74751,0.12184 -1.07031,0.28711 -1.12178,0.57435 -1.73576,1.75119 -1.55664,2.98437 0.0557,0.38337 0.20966,0.79191 0.41796,1.10938 0.0409,0.0623 0.078,0.11709 0.082,0.12109 0.004,0.004 0.0408,0.051 0.0801,0.10352 0.0983,0.13116 0.34692,0.38018 0.5,0.5 0.43082,0.3372 0.99729,0.5537 1.5586,0.5957 0.11997,0.009 0.4933,-0.007 0.61914,-0.0254 0.0612,-0.009 0.13541,-0.0213 0.16601,-0.0293 0.0306,-0.008 0.0911,-0.0228 0.13477,-0.0332 0.51119,-0.12136 1.03892,-0.44177 1.41992,-0.86328 0.10199,-0.11283 0.23852,-0.29293 0.29492,-0.39063 l 0.041,-0.0723 -0.5918,-0.3418 c -0.325,-0.18752 -0.60183,-0.3437 -0.61523,-0.3457 -0.0142,-0.002 -0.0477,0.032 -0.0801,0.0801 -0.15725,0.23352 -0.43181,0.4406 -0.70703,0.5332 -0.1998,0.0672 -0.25223,0.0743 -0.48438,0.0742 -0.25681,-1.7e-4 -0.3972,-0.0288 -0.59961,-0.1211 -0.15119,-0.0689 -0.24913,-0.13605 -0.39843,-0.27539 -0.25813,-0.24091 -0.41641,-0.57826 -0.44141,-0.9414 -0.0481,-0.69827 0.39904,-1.31409 1.08594,-1.5 0.16689,-0.0454 0.53262,-0.0511 0.6875,-0.01 0.13788,0.037 0.29216,0.0979 0.39453,0.15625 0.17235,0.0982 0.38571,0.29905 0.47851,0.44922 0.0192,0.031 0.0445,0.0548 0.0547,0.0547 0.0102,-10e-5 0.054,-0.0202 0.0977,-0.0449 0.0854,-0.0484 0.36711,-0.20996 0.44531,-0.25586 0.0262,-0.0154 0.11768,-0.0689 0.20508,-0.11914 0.0874,-0.0502 0.18766,-0.10821 0.22266,-0.12891 0.035,-0.0207 0.10595,-0.0604 0.15625,-0.0879 0.0503,-0.0275 0.0898,-0.0546 0.0898,-0.0606 0,-0.006 -0.0387,-0.0709 -0.0879,-0.14453 -0.34931,-0.52215 -0.8833,-0.92885 -1.47852,-1.125 -0.3572,-0.11767 -0.74364,-0.16116 -1.12109,-0.13476 z m 2.67187,2.15234 0,0.18164 -0.18164,0 0,0.36523 0.18164,0 0,0.36329 -0.18164,0 0,0.36523 0.18164,0 0,0.18164 0.36524,0 0,-0.18164 0.36328,0 0,0.18164 0.36523,0 0,-0.18164 0.18165,0 0,-0.36523 -0.18165,0 0,-0.36329 0.18165,0 0,-0.36523 -0.18165,0 0,-0.18164 -0.36523,0 0,0.18164 -0.36328,0 0,-0.18164 -0.36524,0 z m 0.36524,0.54687 0.36328,0 0,0.36329 -0.36328,0 0,-0.36329 z"
             style="fill:#ffffff;fill-opacity:1;fill-rule:evenodd;stroke:none;stroke-width:1px;stroke-linecap:butt;stroke-linejoin:miter;stroke-opacity:1" /></g></g></g></g></svg>