<?xml version="1.0" encoding="UTF-8" standalone="no"?>
<!-- Created with Inkscape (http://www.inkscape.org/) -->

<svg
   xmlns:dc="http://purl.org/dc/elements/1.1/"
   xmlns:cc="http://creativecommons.org/ns#"
   xmlns:rdf="http://www.w3.org/1999/02/22-rdf-syntax-ns#"
   xmlns:svg="http://www.w3.org/2000/svg"
   xmlns="http://www.w3.org/2000/svg"
   xmlns:sodipodi="http://sodipodi.sourceforge.net/DTD/sodipodi-0.dtd"
   xmlns:inkscape="http://www.inkscape.org/namespaces/inkscape"
   width="3.4657245mm"
   height="4.8923512mm"
   viewBox="0 0 12.280126 17.335102"
   id="svg3476"
   version="1.1"
   inkscape:version="0.91 r13725"
   sodipodi:docname="css.svg">
  <defs
     id="defs3478" />
  <sodipodi:namedview
     id="base"
     pagecolor="#ffffff"
     bordercolor="#666666"
     borderopacity="1.0"
     inkscape:pageopacity="0.0"
     inkscape:pageshadow="2"
     inkscape:zoom="5.6"
     inkscape:cx="-7.4555351"
     inkscape:cy="15.922638"
     inkscape:document-units="px"
     inkscape:current-layer="g4633"
     showgrid="false"
     fit-margin-top="0"
     fit-margin-left="0"
     fit-margin-right="0"
     fit-margin-bottom="0"
     inkscape:window-width="1366"
     inkscape:window-height="715"
     inkscape:window-x="-8"
     inkscape:window-y="-8"
     inkscape:window-maximized="1" />
  <metadata
     id="metadata3481">
    <rdf:RDF>
      <cc:Work
         rdf:about="">
        <dc:format>image/svg+xml</dc:format>
        <dc:type
           rdf:resource="http://purl.org/dc/dcmitype/StillImage" />
        <dc:title></dc:title>
      </cc:Work>
    </rdf:RDF>
  </metadata>
  <g
     inkscape:label="Calque 1"
     inkscape:groupmode="layer"
     id="layer1"
     transform="translate(-637.14081,-449.12057)">
    <g
       transform="translate(67.881401,-563.96275)"
       id="layer1-0"
       inkscape:label="Layer 1">
      <g
         transform="matrix(0.62780448,0,0,0.62780448,145.34654,648.35211)"
         id="g4633"
         style="fill:#ffffff;fill-opacity:1">
        <g
           id="g4197"
           style="fill:#ffffff;fill-opacity:1"
           transform="matrix(0.56414752,0,0,0.56414752,294.30098,253.21419)">
          <path
             style="fill:#ffffff;fill-opacity:1;fill-rule:evenodd;stroke:none;stroke-width:1"
             inkscape:connector-curvature="0"
             id="Shape"
             d="m 702.40142,582.77526 -2.87789,0 2.99283,3.24754 0,1.54584 -6.16448,0 0,-1.80987 2.99225,0 -2.99225,-3.24766 0,-1.54805 6.04954,0 0,1.8122 0,0 z m -7.27144,0 -2.87789,0 2.99272,3.24754 0,1.54584 -6.16449,0 0,-1.80987 2.9926,0 -2.9926,-3.24766 0,-1.54805 6.04966,0 0,1.8122 0,0 z m -7.20032,0.0736 -3.10544,0 0,2.83418 3.10544,0 0,1.88564 -5.31259,0 0,-6.60558 5.31259,0 0,1.88576 0,0 z m 0,0" />
          <path
             transform="matrix(1.5928526,0,0,1.5928526,-31.211853,305.78444)"
             id="path11-4"
             d="m 443.50781,178.79883 1.98047,22.21875 8.89063,2.46875 8.91406,-2.47071 1.98242,-22.21679 -21.76758,0 z m 4.06641,4.35156 6.81836,0 0.35547,0 6.47656,0 -0.0644,0.73047 -0.66016,7.39453 -0.01,0.11523 -0.46484,5.18165 -0.041,0.45898 -5.57618,1.54687 -0.01,0.002 -0.004,0.002 -5.58203,-1.55078 -0.38086,-4.27734 1.25977,0 1.47461,0 0.19531,2.17187 3.03515,0.82031 0.002,0 0.01,-0.004 0,0.002 3.0293,-0.82031 0.31836,-3.53321 -3.04883,0 -3.2793,0 -0.01,0 -0.0586,-0.61132 -0.13672,-1.38282 -0.0723,-0.73046 3.55664,0 3.29102,0 0.24804,-2.79102 -3.49804,0 -0.35547,0 -6.55274,0 -0.01,0 -0.0566,-0.61328 -0.13086,-1.38086 -0.0684,-0.73047 z"
             style="fill:#ffffff;fill-opacity:1;fill-rule:evenodd;stroke:none;stroke-width:1"
             inkscape:connector-curvature="0" />
        </g>
      </g>
    </g>
  </g>
</svg>
