<?xml version="1.0" encoding="UTF-8" standalone="no"?>
<!-- Created with Inkscape (http://www.inkscape.org/) -->

<svg
   xmlns:dc="http://purl.org/dc/elements/1.1/"
   xmlns:cc="http://creativecommons.org/ns#"
   xmlns:rdf="http://www.w3.org/1999/02/22-rdf-syntax-ns#"
   xmlns:svg="http://www.w3.org/2000/svg"
   xmlns="http://www.w3.org/2000/svg"
   xmlns:sodipodi="http://sodipodi.sourceforge.net/DTD/sodipodi-0.dtd"
   xmlns:inkscape="http://www.inkscape.org/namespaces/inkscape"
   width="3.4728146mm"
   height="4.9018264mm"
   viewBox="0 0 12.305248 17.368676"
   id="svg3476"
   version="1.1"
   inkscape:version="0.91 r13725"
   sodipodi:docname="html.svg">
  <defs
     id="defs3478" />
  <sodipodi:namedview
     id="base"
     pagecolor="#ffffff"
     bordercolor="#666666"
     borderopacity="1.0"
     inkscape:pageopacity="0.0"
     inkscape:pageshadow="2"
     inkscape:zoom="5.6"
     inkscape:cx="23.927828"
     inkscape:cy="20.903231"
     inkscape:document-units="px"
     inkscape:current-layer="layer1-6"
     showgrid="false"
     fit-margin-top="0"
     fit-margin-left="0"
     fit-margin-right="0"
     fit-margin-bottom="0"
     inkscape:window-width="1366"
     inkscape:window-height="715"
     inkscape:window-x="-8"
     inkscape:window-y="-8"
     inkscape:window-maximized="1" />
  <metadata
     id="metadata3481">
    <rdf:RDF>
      <cc:Work
         rdf:about="">
        <dc:format>image/svg+xml</dc:format>
        <dc:type
           rdf:resource="http://purl.org/dc/dcmitype/StillImage" />
        <dc:title></dc:title>
      </cc:Work>
    </rdf:RDF>
  </metadata>
  <g
     inkscape:label="Calque 1"
     inkscape:groupmode="layer"
     id="layer1"
     transform="translate(-605.75745,-454.06758)">
    <g
       transform="translate(67.881401,-563.96275)"
       id="layer1-0"
       inkscape:label="Layer 1">
      <g
         transform="matrix(0.62780448,0,0,0.62780448,145.34654,648.35211)"
         id="g4633"
         style="fill:#ffffff;fill-opacity:1">
        <g
           transform="matrix(1.5928528,0,0,1.5928528,-276.17186,-1014.251)"
           id="layer1-6"
           inkscape:label="Layer 1">
          <g
             id="g4253"
             transform="matrix(0.56525088,0,0,0.56525088,223.82319,431.48805)"
             style="fill:#ffffff;fill-opacity:1">
            <path
               id="polygon6"
               transform="translate(597.29473,1001.4824)"
               d="m 7.9023438,21.699219 1.9804687,22.222656 8.8906255,2.466797 8.916015,-2.470703 1.982422,-22.21875 -21.7695312,0 z m 4.0507812,4.546875 6.824219,0 6.828125,0 -0.06641,0.728515 -0.123046,1.382813 -0.05469,0.611328 -0.0098,0 -6.564453,0 -3.855468,0 0.248047,2.791016 3.607421,0 5.591797,0 0.732422,0 -0.06445,0.732422 -0.640625,7.173828 -0.04297,0.46289 -5.576172,1.544922 -0.0098,0 -0.002,0 -5.583985,-1.550781 -0.382812,-4.279297 1.261718,0 1.47461,0 0.195312,2.175781 3.035157,0.81836 0.002,0 0.0098,0 3.029297,-0.81836 0.316406,-3.535156 -3.345703,0 -6.099609,0 -0.669922,-7.511719 -0.06445,-0.726562 z"
               style="fill:#ffffff;fill-opacity:1"
               inkscape:connector-curvature="0" />
            <path
               inkscape:connector-curvature="0"
               id="path14"
               d="m 607.22238,1017.1437 1.38498,0 0,1.3684 1.26693,0 0,-1.3684 1.38504,0 0,4.1437 -1.38498,0 0,-1.3875 -1.26693,0 0,1.3875 -1.38498,0 0,-4.1437 z"
               style="fill:#ffffff;fill-opacity:1" />
            <path
               inkscape:connector-curvature="0"
               id="path16-0"
               d="m 613.08062,1018.5178 -1.21928,0 0,-1.3741 3.8242,0 0,1.3741 -1.21982,0 0,2.7696 -1.38504,0 0,-2.7696 z"
               style="fill:#ffffff;fill-opacity:1" />
            <path
               inkscape:connector-curvature="0"
               id="path18"
               d="m 616.29248,1017.1437 1.44415,0 0.88835,1.456 0.88746,-1.456 1.44469,0 0,4.1437 -1.37928,0 0,-2.0538 -0.95287,1.4733 -0.0238,0 -0.95353,-1.4733 0,2.0538 -1.35515,0 0,-4.1437 z"
               style="fill:#ffffff;fill-opacity:1" />
            <path
               inkscape:connector-curvature="0"
               id="path20"
               d="m 621.64641,1017.1437 1.3854,0 0,2.774 1.94769,0 0,1.3697 -3.33309,0 0,-4.1437 z"
               style="fill:#ffffff;fill-opacity:1" />
          </g>
        </g>
      </g>
    </g>
  </g>
</svg>
