<?xml version="1.0" encoding="UTF-8" standalone="no"?>
<!-- Created with Inkscape (http://www.inkscape.org/) -->

<svg
   xmlns:dc="http://purl.org/dc/elements/1.1/"
   xmlns:cc="http://creativecommons.org/ns#"
   xmlns:rdf="http://www.w3.org/1999/02/22-rdf-syntax-ns#"
   xmlns:svg="http://www.w3.org/2000/svg"
   xmlns="http://www.w3.org/2000/svg"
   xmlns:sodipodi="http://sodipodi.sourceforge.net/DTD/sodipodi-0.dtd"
   xmlns:inkscape="http://www.inkscape.org/namespaces/inkscape"
   width="4.806325mm"
   height="4.7432065mm"
   viewBox="0 0 17.030285 16.806637"
   id="svg3476"
   version="1.1"
   inkscape:version="0.91 r13725"
   sodipodi:docname="inkscape.svg">
  <defs
     id="defs3478" />
  <sodipodi:namedview
     id="base"
     pagecolor="#ffffff"
     bordercolor="#666666"
     borderopacity="1.0"
     inkscape:pageopacity="0.0"
     inkscape:pageshadow="2"
     inkscape:zoom="5.6"
     inkscape:cx="53.208124"
     inkscape:cy="-12.522133"
     inkscape:document-units="px"
     inkscape:current-layer="layer1-63"
     showgrid="false"
     fit-margin-top="0"
     fit-margin-left="0"
     fit-margin-right="0"
     fit-margin-bottom="0"
     inkscape:window-width="1366"
     inkscape:window-height="715"
     inkscape:window-x="-8"
     inkscape:window-y="-8"
     inkscape:window-maximized="1" />
  <metadata
     id="metadata3481">
    <rdf:RDF>
      <cc:Work
         rdf:about="">
        <dc:format>image/svg+xml</dc:format>
        <dc:type
           rdf:resource="http://purl.org/dc/dcmitype/StillImage" />
        <dc:title></dc:title>
      </cc:Work>
    </rdf:RDF>
  </metadata>
  <g
     inkscape:label="Calque 1"
     inkscape:groupmode="layer"
     id="layer1"
     transform="translate(-576.47715,-421.20426)">
    <g
       transform="translate(67.881401,-563.96275)"
       id="layer1-0"
       inkscape:label="Layer 1">
      <g
         transform="matrix(0.62780448,0,0,0.62780448,145.34654,648.35211)"
         id="g4633"
         style="fill:#ffffff;fill-opacity:1">
        <g
           transform="matrix(1.5928528,0,0,1.5928528,-276.17186,-1014.251)"
           id="layer1-6"
           inkscape:label="Layer 1">
          <g
             transform="translate(157.40376,-55.949397)"
             id="layer1-63"
             inkscape:label="Layer 1">
            <path
               style="fill:#ffffff;fill-opacity:1"
               d="m 387.59753,1029.5155 c -0.52659,-10e-4 -1.04821,0.1901 -1.4261,0.5769 l -6.2866,6.434 c -2.12416,2.6305 1.44583,2.3242 2.97612,3.0819 0.54893,0.5611 -2.1043,0.9756 -1.55536,1.5372 0.54894,0.5611 3.31929,1.0807 3.86917,1.6418 0.54893,0.5611 -1.12365,1.1567 -0.57472,1.7178 0.54895,0.5611 1.81864,0.029 2.05637,1.3246 0.16941,0.9256 2.28826,0.397 3.32436,-0.3611 0.54895,-0.5615 -1.04994,-0.5082 -0.501,-1.0693 1.3651,-1.3959 2.6362,-0.507 3.10324,-1.9057 0.23072,-0.6912 -2.01016,-1.0659 -1.46029,-1.627 1.57943,-0.9224 7.03842,-1.5224 4.44816,-4.1127 l -6.51627,-6.6615 c -0.39848,-0.3826 -0.93049,-0.5758 -1.45708,-0.5769 z m 0.0566,0.6121 c 0.37596,0 0.75038,0.1433 1.02017,0.4166 l 2.48793,2.5254 c 0.23586,0.2409 0.23238,0.7085 0.10041,0.8428 l -1.23488,-0.9881 -0.24356,1.4635 -1.03192,-0.5448 -1.6515,1.0436 -0.54801,-2.2005 -0.88771,1.5361 -1.35666,0 c -0.55316,0 -0.61799,-0.7024 -0.11538,-1.205 0.87793,-0.9477 1.88485,-1.9133 2.43239,-2.473 0.27517,-0.2812 0.65275,-0.4186 1.02872,-0.4166 z m -2.98681,9.8289 c 0.16801,0.1044 2.70871,0.6202 3.32971,0.7232 0.21527,0.045 0.0627,0.2669 -0.23394,0.4166 -0.66922,0.1779 -3.91473,-1.1398 -3.09577,-1.1398 z m 9.88017,1.7679 c -0.51127,0.018 -1.01579,0.2794 -1.15477,0.7692 0,0.3191 2.35226,0.5278 2.35226,-0.076 -0.16754,-0.4848 -0.68623,-0.7109 -1.19749,-0.6933 z m -10.68669,1.3866 c -0.75424,-0.058 -1.72412,0.5033 -1.06076,1.0779 0.55689,0.4815 1.41715,-0.1196 1.675,-0.7916 -0.13489,-0.1792 -0.36282,-0.2671 -0.61424,-0.2863 z m 9.23708,0.037 c -0.71788,0.6439 0.0808,1.2974 0.78836,0.8813 0.15771,-0.16 -0.005,-0.7213 -0.78836,-0.8813 z"
               id="path5"
               inkscape:connector-curvature="0" />
          </g>
        </g>
      </g>
    </g>
  </g>
</svg>
