<?xml version="1.0" encoding="UTF-8" standalone="no"?>
<!-- Generator: Adobe Illustrator 17.1.0, SVG Export Plug-In . SVG Version: 6.00 Build 0)  -->

<svg
   xmlns:dc="http://purl.org/dc/elements/1.1/"
   xmlns:cc="http://creativecommons.org/ns#"
   xmlns:rdf="http://www.w3.org/1999/02/22-rdf-syntax-ns#"
   xmlns:svg="http://www.w3.org/2000/svg"
   xmlns="http://www.w3.org/2000/svg"
   xmlns:sodipodi="http://sodipodi.sourceforge.net/DTD/sodipodi-0.dtd"
   xmlns:inkscape="http://www.inkscape.org/namespaces/inkscape"
   version="1.1"
   id="Layer_1"
   x="0px"
   y="0px"
   viewBox="0 0 22.273194 16.703609"
   enable-background="new 0 0 547.8 410.6"
   xml:space="preserve"
   inkscape:version="0.91 r13725"
   sodipodi:docname="sass.svg"
   width="22.273193"
   height="16.703609"><metadata
     id="metadata21"><rdf:RDF><cc:Work
         rdf:about=""><dc:format>image/svg+xml</dc:format><dc:type
           rdf:resource="http://purl.org/dc/dcmitype/StillImage" /><dc:title></dc:title></cc:Work></rdf:RDF></metadata><defs
     id="defs19" /><sodipodi:namedview
     pagecolor="#ffffff"
     bordercolor="#666666"
     borderopacity="1"
     objecttolerance="10"
     gridtolerance="10"
     guidetolerance="10"
     inkscape:pageopacity="0"
     inkscape:pageshadow="2"
     inkscape:window-width="1366"
     inkscape:window-height="715"
     id="namedview17"
     showgrid="false"
     fit-margin-top="0"
     fit-margin-left="0"
     fit-margin-right="0"
     fit-margin-bottom="0"
     inkscape:zoom="8.4994525"
     inkscape:cx="-21.915663"
     inkscape:cy="-14.274365"
     inkscape:window-x="-8"
     inkscape:window-y="-8"
     inkscape:window-maximized="1"
     inkscape:current-layer="Layer_1" /><path
     d="m 19.17902,9.602255 c -0.777044,0.00406 -1.452382,0.1912099 -2.017875,0.467854 -0.207483,-0.4108979 -0.414967,-0.7770447 -0.451581,-1.0455522 -0.04068,-0.3132589 -0.0895,-0.504469 -0.04068,-0.8787523 0.04882,-0.3742834 0.268507,-0.9072303 0.264438,-0.9479133 -0.004,-0.040684 -0.04882,-0.231893 -0.496331,-0.2359612 -0.447513,-0.00406 -0.834002,0.085435 -0.878753,0.2034148 -0.04475,0.1179807 -0.130185,0.3864883 -0.187142,0.6631324 -0.07729,0.4068298 -0.895025,1.859212 -1.362879,2.6199838 C 13.857686,10.151475 13.7275,9.891104 13.699022,9.6836209 13.658342,9.370362 13.609522,9.179152 13.658342,8.8048686 c 0.04882,-0.3742833 0.268508,-0.9072303 0.26444,-0.9479133 -0.004,-0.040682 -0.04882,-0.2318929 -0.496333,-0.2359612 -0.447512,-0.00406 -0.834,0.085435 -0.878751,0.2034149 -0.04475,0.1179806 -0.09357,0.3946248 -0.187142,0.6631325 -0.09357,0.2685076 -1.179806,2.6932125 -1.464587,3.3197305 -0.146459,0.321395 -0.272576,0.577699 -0.362079,0.752635 0,0 0,0 0,0 0,0 -0.0041,0.0122 -0.01627,0.03255 -0.0773,0.150527 -0.122049,0.231893 -0.122049,0.231893 0,0 0,0 0,0.004 -0.06102,0.109845 -0.126117,0.211552 -0.158664,0.211552 -0.02441,0 -0.06916,-0.292917 0.0081,-0.69161 0.162732,-0.842138 0.54922,-2.15213 0.545152,-2.196881 0,-0.02441 0.07323,-0.2522341 -0.252234,-0.3702149 -0.317328,-0.1179806 -0.43124,0.077298 -0.459718,0.077298 -0.02848,0 -0.04882,0.069161 -0.04882,0.069161 0,0 0.353942,-1.4727237 -0.675337,-1.4727237 -0.6427911,0 -1.5296798,0.7038155 -1.969056,1.3384699 C 7.1083822,9.943992 6.5184792,10.265387 5.887893,10.611193 5.6478635,10.745446 5.3996973,10.8797 5.1678044,11.005817 5.1515312,10.989544 5.135258,10.969203 5.1189849,10.952929 3.8740859,9.6225965 1.5714295,8.6828198 1.6690686,6.8968372 1.7056833,6.2459095 1.9294397,4.5372247 6.0913079,2.462393 9.5168143,0.77404957 12.242574,1.2419038 12.714496,2.2793196 13.389833,3.7601798 11.253977,6.5103489 7.7145586,6.909042 6.3638838,7.0595691 5.6560001,6.538827 5.476995,6.3435487 5.2898533,6.1401339 5.2613752,6.1279289 5.1922142,6.168612 c -0.1139123,0.061025 -0.040683,0.2440977 0,0.3498735 0.1057759,0.2766443 0.5410836,0.76484 1.2774454,1.0048695 C 7.1205871,7.7349065 8.7031548,7.8528871 10.619323,7.1124569 12.763315,6.2825242 14.439454,3.9757996 13.94719,2.0433584 13.454926,0.082439 10.200288,-0.56442028 7.1205871,0.52995172 5.2898533,1.1808794 3.3045242,2.2060902 1.8765518,3.5404918 0.18007176,5.1271278 -0.08843586,6.5062806 0.02140817,7.0839788 0.41603302,9.1344008 3.2434997,10.468802 4.3744864,11.457399 c -0.056956,0.03255 -0.1098441,0.06103 -0.1545953,0.08543 -0.5654933,0.280713 -2.7216909,1.407631 -3.25870623,2.599643 -0.61024461,1.350674 0.0976391,2.318928 0.56549343,2.449114 1.4523821,0.402762 2.9454473,-0.321395 3.7469019,-1.517474 0.8014546,-1.19608 0.7038154,-2.750169 0.3336004,-3.462122 -0.00406,-0.0081 -0.00814,-0.01628 -0.016273,-0.02441 0.1464587,-0.08543 0.2969857,-0.174936 0.4434444,-0.260371 0.2888493,-0.170862 0.5736301,-0.329526 0.8177279,-0.459711 -0.1383221,0.378352 -0.2400296,0.829933 -0.2888491,1.480861 -0.061025,0.764839 0.2522344,1.757505 0.6631325,2.14806 0.1830734,0.170869 0.3986931,0.174937 0.5370152,0.174937 0.4800591,0 0.6956789,-0.398693 0.9357085,-0.870616 0.2929174,-0.577697 0.5573567,-1.248967 0.5573567,-1.248967 0,0 -0.3295321,1.814461 0.5654934,1.814461 0.3254629,0 0.6549949,-0.423103 0.8014539,-0.638723 0,0.004 0,0.004 0,0.004 0,0 0.0081,-0.0122 0.02441,-0.04068 0.03255,-0.05289 0.05289,-0.08543 0.05289,-0.08543 0,0 0,-0.004 0,-0.0081 0.130186,-0.227825 0.423102,-0.744499 0.858411,-1.602909 0.561425,-1.106577 1.102509,-2.4897983 1.102509,-2.4897983 0,0 0.04882,0.3376688 0.215619,0.8990933 0.09764,0.329532 0.301055,0.691611 0.463786,1.041484 -0.130186,0.183074 -0.211552,0.284781 -0.211552,0.284781 0,0 0,0 0.004,0.004 -0.10578,0.138321 -0.219688,0.288848 -0.345806,0.435308 -0.443444,0.528878 -0.972323,1.135054 -1.045552,1.309991 -0.08543,0.207484 -0.06509,0.35801 0.09764,0.480059 0.11798,0.08951 0.329532,0.101706 0.545151,0.08951 0.398693,-0.02848 0.679406,-0.126118 0.817728,-0.187142 0.21562,-0.07729 0.467854,-0.195279 0.703815,-0.370215 0.435308,-0.321395 0.699748,-0.781113 0.675338,-1.38729 -0.0122,-0.3336 -0.122049,-0.6672 -0.256303,-0.98046 0.04069,-0.05695 0.07729,-0.113911 0.11798,-0.170868 0.687542,-1.004869 1.22049,-2.1073775 1.22049,-2.1073775 0,0 0.04881,0.3376686 0.215619,0.8990936 0.08137,0.2847809 0.248167,0.5939719 0.394625,0.8950249 -0.646859,0.524811 -1.045552,1.135055 -1.187943,1.533749 -0.256302,0.74043 -0.05695,1.07403 0.321396,1.151328 0.170869,0.03661 0.414967,-0.04475 0.593972,-0.12205 0.227824,-0.07323 0.496332,-0.199346 0.752634,-0.386487 0.435308,-0.321396 0.854343,-0.768909 0.829933,-1.375085 -0.0122,-0.276644 -0.08543,-0.54922 -0.187142,-0.813659 0.549221,-0.227825 1.257104,-0.353942 2.160266,-0.248167 1.93651,0.227825 2.31893,1.43611 2.245701,1.944647 -0.07323,0.508537 -0.48006,0.785181 -0.614313,0.870615 -0.134254,0.08543 -0.179005,0.113912 -0.166801,0.174937 0.01628,0.0895 0.08137,0.08543 0.195278,0.06917 0.158664,-0.02848 1.017075,-0.410898 1.053689,-1.346607 0.06103,-1.196079 -1.078098,-2.5020028 -3.091905,-2.4897978 z M 4.2402326,14.638807 c -0.642791,0.699748 -1.5378164,0.964186 -1.9243047,0.74043 -0.4149663,-0.24003 -0.2522345,-1.273376 0.5370153,-2.013807 0.4800591,-0.451581 1.0984402,-0.870616 1.5093383,-1.126919 0.09357,-0.05695 0.231893,-0.138321 0.3986931,-0.240029 0.028478,-0.01628 0.044751,-0.02441 0.044751,-0.02441 l 0,0 c 0.032547,-0.02034 0.065092,-0.04069 0.097639,-0.06103 0.2888491,1.057757 0.012205,1.989398 -0.6631325,2.725759 z m 4.678542,-3.181408 C 8.6950182,12.00255 8.2271641,13.397976 7.9423832,13.320679 7.6982853,13.255586 7.5477584,12.197829 7.8935636,11.152277 8.0685004,10.627466 8.4387155,10.000948 8.6543353,9.7568502 9.0042089,9.3662936 9.3906972,9.2361082 9.4842679,9.3947717 9.6022486,9.602255 9.0570967,11.115662 8.9187746,11.457399 Z m 3.8608144,1.847007 c -0.09357,0.04882 -0.183074,0.08137 -0.223757,0.05695 -0.02848,-0.01627 0.04068,-0.08137 0.04068,-0.08137 0,0 0.484129,-0.520741 0.675338,-0.756703 0.109844,-0.138322 0.24003,-0.301053 0.378351,-0.484127 0,0.01628 0,0.03661 0,0.05289 0,0.62245 -0.602107,1.041484 -0.870615,1.212353 z M 15.757583,12.625 c -0.06917,-0.04882 -0.05695,-0.211552 0.174936,-0.720089 0.08951,-0.199346 0.301054,-0.532947 0.663132,-0.854343 0.04069,0.130186 0.06917,0.256303 0.06509,0.374284 -0.004,0.785181 -0.565494,1.078099 -0.903161,1.200148 z"
     id="path3"
     inkscape:connector-curvature="0"
     style="fill:#ffffff;fill-opacity:1" /><g
     id="g5"
     transform="translate(0.02621928,0.02637609)" /><g
     id="g7"
     transform="translate(0.02621928,0.02637609)" /><g
     id="g9"
     transform="translate(0.02621928,0.02637609)" /><g
     id="g11"
     transform="translate(0.02621928,0.02637609)" /><g
     id="g13"
     transform="translate(0.02621928,0.02637609)" /><g
     id="g15"
     transform="translate(0.02621928,0.02637609)" /></svg>