<?xml version="1.0" encoding="UTF-8" standalone="no"?>
<!-- Created with Inkscape (http://www.inkscape.org/) -->

<svg
   xmlns:dc="http://purl.org/dc/elements/1.1/"
   xmlns:cc="http://creativecommons.org/ns#"
   xmlns:rdf="http://www.w3.org/1999/02/22-rdf-syntax-ns#"
   xmlns:svg="http://www.w3.org/2000/svg"
   xmlns="http://www.w3.org/2000/svg"
   xmlns:sodipodi="http://sodipodi.sourceforge.net/DTD/sodipodi-0.dtd"
   xmlns:inkscape="http://www.inkscape.org/namespaces/inkscape"
   width="225.00008"
   height="225.00009"
   viewBox="0 0 225.00008 225.0001"
   id="svg2"
   version="1.1"
   inkscape:version="0.91 r13725"
   sodipodi:docname="logo-icon.svg"
   inkscape:export-filename="C:\Users\ASUS\Desktop\logo.png"
   inkscape:export-xdpi="90"
   inkscape:export-ydpi="90">
  <defs
     id="defs4">
    <inkscape:path-effect
       effect="spiro"
       id="path-effect4171"
       is_visible="true" />
    <inkscape:path-effect
       effect="spiro"
       id="path-effect4167"
       is_visible="true" />
  </defs>
  <sodipodi:namedview
     id="base"
     pagecolor="#ffffff"
     bordercolor="#666666"
     borderopacity="1.0"
     inkscape:pageopacity="0"
     inkscape:pageshadow="2"
     inkscape:zoom="0.74949874"
     inkscape:cx="352.15721"
     inkscape:cy="48.600686"
     inkscape:document-units="px"
     inkscape:current-layer="layer1"
     showgrid="false"
     showguides="true"
     inkscape:guide-bbox="true"
     inkscape:window-width="1366"
     inkscape:window-height="715"
     inkscape:window-x="-8"
     inkscape:window-y="-8"
     inkscape:window-maximized="1"
     fit-margin-top="0"
     fit-margin-left="0"
     fit-margin-right="0"
     fit-margin-bottom="0"
     units="px" />
  <metadata
     id="metadata7">
    <rdf:RDF>
      <cc:Work
         rdf:about="">
        <dc:format>image/svg+xml</dc:format>
        <dc:type
           rdf:resource="http://purl.org/dc/dcmitype/StillImage" />
        <dc:title></dc:title>
      </cc:Work>
    </rdf:RDF>
  </metadata>
  <g
     inkscape:label="Layer 1"
     inkscape:groupmode="layer"
     id="layer1"
     transform="translate(-232.82881,-52.250117)">
    <g
       id="g4721"
       style="fill:#ffffff;fill-opacity:1">
      <g
         id="g4763"
         style="fill:#ffffff;fill-opacity:1">
        <g
           id="g4755"
           style="fill:#ffffff;fill-opacity:1">
          <g
             style="fill:#ffffff;fill-opacity:1"
             id="g4759">
            <path
               style="opacity:1;fill:#ffffff;fill-opacity:1;stroke:none;stroke-width:5;stroke-linejoin:miter;stroke-miterlimit:4;stroke-dasharray:none;stroke-opacity:1"
               d="M 112.25977,17.126953 A 95.613779,95.613779 0 0 0 16.646484,112.74023 95.613779,95.613779 0 0 0 112.25977,208.35352 95.613779,95.613779 0 0 0 207.875,112.74023 95.613779,95.613779 0 0 0 112.25977,17.126953 Z M 93.800781,48.761719 c 1.68894,8.303176 4.240928,16.3743 7.523439,24.134765 l 46.5039,0 0,4.66211 6.30665,0 c -1.94146,17.355971 -4.34002,35.447306 -11.09961,51.669926 8.73778,8.19112 17.85985,15.9793 26.73242,24.02148 l -15.63281,13.4375 c -7.86289,-5.39752 -15.50924,-11.22156 -22.81055,-17.46289 -10.91951,13.67028 -26.74834,22.69289 -43.281251,27.88477 L 74.054688,161.47656 C 89.15877,155.18552 104.19003,146.28007 114.5625,133.45703 103.32378,121.78119 93.399656,108.90537 85.441406,94.835938 l -9.191406,0 0,30.714842 -21.666016,0 0,-52.654296 20.498047,0 C 72.884684,67.241688 70.973445,61.476199 69.392578,55.619141 l 24.408203,-6.857422 z m 19.240239,46.074219 c 3.92177,6.009022 8.29945,11.723332 13.03515,17.115232 1.83921,-5.57137 3.09539,-11.31985 4.16602,-17.115232 l -17.20117,0 z"
               id="path4149"
               transform="translate(232.82938,52.24996)"
               inkscape:connector-curvature="0" />
            <path
               inkscape:connector-curvature="0"
               id="path4164"
               d="M 344.55899,52.252799 C 282.48767,52.67756 232.4067,103.44868 232.83146,165.52 c 0.42476,62.07132 51.19587,112.1523 113.2672,111.72754 62.07133,-0.42476 112.15229,-51.19588 111.72753,-113.2672 C 457.40143,101.90901 406.63032,51.828038 344.55899,52.252799 Z m 0.0684,9.999766 c 56.66706,-0.387779 102.81123,45.129145 103.19901,101.796205 0.38778,56.66704 -45.12915,102.81122 -101.7962,103.199 -56.66702,0.38778 -102.8112,-45.12915 -103.19898,-101.7962 -0.38777,-56.66705 45.12915,-102.811227 101.7962,-103.199005 z"
               style="color:#000000;font-style:normal;font-variant:normal;font-weight:normal;font-stretch:normal;font-size:medium;line-height:normal;font-family:sans-serif;text-indent:0;text-align:start;text-decoration:none;text-decoration-line:none;text-decoration-style:solid;text-decoration-color:#000000;letter-spacing:normal;word-spacing:normal;text-transform:none;direction:ltr;block-progression:tb;writing-mode:lr-tb;baseline-shift:baseline;text-anchor:start;white-space:normal;clip-rule:nonzero;display:inline;overflow:visible;visibility:visible;opacity:1;isolation:auto;mix-blend-mode:normal;color-interpolation:sRGB;color-interpolation-filters:linearRGB;solid-color:#000000;solid-opacity:1;fill:#ffffff;fill-opacity:1;fill-rule:nonzero;stroke:none;stroke-width:10;stroke-linecap:butt;stroke-linejoin:miter;stroke-miterlimit:4;stroke-dasharray:none;stroke-dashoffset:0;stroke-opacity:1;color-rendering:auto;image-rendering:auto;shape-rendering:auto;text-rendering:auto;enable-background:accumulate" />
          </g>
        </g>
      </g>
    </g>
    <g
       style="fill:#ffffff;fill-opacity:1"
       id="g4171">
      <g
         style="fill:#ffffff;fill-opacity:1"
         id="g4173">
        <g
           style="fill:#ffffff;fill-opacity:1"
           id="g4175">
          <g
             id="g4177"
             style="fill:#ffffff;fill-opacity:1">
            <path
               inkscape:connector-curvature="0"
               transform="translate(232.82938,52.24996)"
               id="path4179"
               d="M 112.25977,17.126953 A 95.613779,95.613779 0 0 0 16.646484,112.74023 95.613779,95.613779 0 0 0 112.25977,208.35352 95.613779,95.613779 0 0 0 207.875,112.74023 95.613779,95.613779 0 0 0 112.25977,17.126953 Z M 93.800781,48.761719 c 1.68894,8.303176 4.240928,16.3743 7.523439,24.134765 l 46.5039,0 0,4.66211 6.30665,0 c -1.94146,17.355971 -4.34002,35.447306 -11.09961,51.669926 8.73778,8.19112 17.85985,15.9793 26.73242,24.02148 l -15.63281,13.4375 c -7.86289,-5.39752 -15.50924,-11.22156 -22.81055,-17.46289 -10.91951,13.67028 -26.74834,22.69289 -43.281251,27.88477 L 74.054688,161.47656 C 89.15877,155.18552 104.19003,146.28007 114.5625,133.45703 103.32378,121.78119 93.399656,108.90537 85.441406,94.835938 l -9.191406,0 0,30.714842 -21.666016,0 0,-52.654296 20.498047,0 C 72.884684,67.241688 70.973445,61.476199 69.392578,55.619141 l 24.408203,-6.857422 z m 19.240239,46.074219 c 3.92177,6.009022 8.29945,11.723332 13.03515,17.115232 1.83921,-5.57137 3.09539,-11.31985 4.16602,-17.115232 l -17.20117,0 z"
               style="opacity:1;fill:#ffffff;fill-opacity:1;stroke:none;stroke-width:5;stroke-linejoin:miter;stroke-miterlimit:4;stroke-dasharray:none;stroke-opacity:1" />
            <path
               style="color:#000000;font-style:normal;font-variant:normal;font-weight:normal;font-stretch:normal;font-size:medium;line-height:normal;font-family:sans-serif;text-indent:0;text-align:start;text-decoration:none;text-decoration-line:none;text-decoration-style:solid;text-decoration-color:#000000;letter-spacing:normal;word-spacing:normal;text-transform:none;direction:ltr;block-progression:tb;writing-mode:lr-tb;baseline-shift:baseline;text-anchor:start;white-space:normal;clip-rule:nonzero;display:inline;overflow:visible;visibility:visible;opacity:1;isolation:auto;mix-blend-mode:normal;color-interpolation:sRGB;color-interpolation-filters:linearRGB;solid-color:#000000;solid-opacity:1;fill:#ffffff;fill-opacity:1;fill-rule:nonzero;stroke:none;stroke-width:10;stroke-linecap:butt;stroke-linejoin:miter;stroke-miterlimit:4;stroke-dasharray:none;stroke-dashoffset:0;stroke-opacity:1;color-rendering:auto;image-rendering:auto;shape-rendering:auto;text-rendering:auto;enable-background:accumulate"
               d="M 344.55899,52.252799 C 282.48767,52.67756 232.4067,103.44868 232.83146,165.52 c 0.42476,62.07132 51.19587,112.1523 113.2672,111.72754 62.07133,-0.42476 112.15229,-51.19588 111.72753,-113.2672 C 457.40143,101.90901 406.63032,51.828038 344.55899,52.252799 Z m 0.0684,9.999766 c 56.66706,-0.387779 102.81123,45.129145 103.19901,101.796205 0.38778,56.66704 -45.12915,102.81122 -101.7962,103.199 -56.66702,0.38778 -102.8112,-45.12915 -103.19898,-101.7962 -0.38777,-56.66705 45.12915,-102.811227 101.7962,-103.199005 z"
               id="path4181"
               inkscape:connector-curvature="0" />
          </g>
        </g>
      </g>
    </g>
  </g>
</svg>
